<svg xmlns="http://www.w3.org/2000/svg" xmlns:xlink="http://www.w3.org/1999/xlink" viewBox="0,0,256,256" width="500px" height="500px" fill-rule="nonzero"><g fill="none" fill-rule="nonzero" stroke="none" stroke-width="1" stroke-linecap="butt" stroke-linejoin="miter" stroke-miterlimit="10" stroke-dasharray="" stroke-dashoffset="0" font-family="none" font-weight="none" font-size="none" text-anchor="none" style="mix-blend-mode: normal"><g transform="scale(2.56,2.56)"><path d="M87.2,55.6c0.3,-0.6 0.6,-1.3 0.8,-1.9c2.6,-7.8 -1.3,-17.1 -9.7,-19.3c-0.9,-11.4 -8.9,-19.2 -17.9,-20.5c-10.3,-1.5 -19.8,5 -23,15.5c-3.8,-1.3 -7.5,-1.2 -11,0.9c-1.6,0.7 -3,1.8 -4.3,3.2c-1.9,2.1 -3.1,4.7 -3.7,7.5c-0.7,0.1 -1.5,0.2 -2.2,0.5c-4,1.4 -6.6,4.4 -7.3,8.9c-0.4,2.8 0.4,5.6 0.9,6.7c1.9,4.5 6.4,7 11,6.3c0.2,0 0.6,0.1 0.8,0.2c0.2,7.1 3.7,13.4 8.9,17c8.3,5.8 19,4 25.8,-3.9c2.9,3 6.3,4.4 10.4,3.9c4,-0.5 7.1,-2.7 9.4,-6.3c1.1,0.3 2.1,0.7 3.1,0.8c4,0.4 7.3,-1.2 9.7,-4.8c0.1,-0.1 0.2,-0.2 0.3,-0.3c0.3,-0.8 0.7,-1.6 1,-2.4c0.2,-1.2 0.4,-2.4 0.4,-3.6c0.1,-3.5 -1.2,-6.5 -3.4,-8.4z" fill="#00172d"></path><path d="M41.3,34.4c0,0 11.7,0 11.8,0c2.7,0 4.9,-2.2 4.9,-4.9c0,-2.4 -1.7,-4.3 -3.9,-4.8c0,-0.2 0,-0.4 0,-0.6c0,-2.8 -2.3,-5.1 -5.1,-5.1c-1.7,0 -3.1,0.8 -4,2c-0.2,-3.1 -3,-5.5 -6.3,-5.1c-2.4,0.3 -4.3,2.1 -4.8,4.5c-0.1,0.8 -0.1,1.5 0,2.2c-0.6,-0.7 -1.5,-1.1 -2.6,-1.1c-1.9,0 -3.4,1.4 -3.5,3.3c-0.8,-0.2 -1.8,-0.2 -2.7,0.2c-1.8,0.7 -3.1,2.4 -3.2,4.4c-0.1,2.8 2.1,5.1 4.9,5.1c0.2,0 0.9,0 1.1,0h10.2" fill="#fdfcef"></path><path d="M53.1,34.9h-11.8c-0.3,0 -0.5,-0.2 -0.5,-0.5c0,-0.3 0.2,-0.5 0.5,-0.5h11.8c2.4,0 4.4,-2 4.4,-4.4c0,-2.1 -1.5,-3.9 -3.5,-4.3c-0.3,-0.1 -0.4,-0.3 -0.4,-0.6c0,-0.2 0,-0.4 0,-0.6c0,-2.5 -2,-4.6 -4.6,-4.6c-1.4,0 -2.8,0.7 -3.6,1.8c-0.1,0.2 -0.3,0.2 -0.5,0.2c-0.2,-0.1 -0.3,-0.2 -0.4,-0.4c-0.1,-1.4 -0.8,-2.7 -1.8,-3.5c-1.1,-0.9 -2.5,-1.3 -3.9,-1.1c-2.2,0.3 -4,1.9 -4.4,4.1c-0.1,0.7 -0.1,1.3 0,2c0,0.2 -0.1,0.4 -0.3,0.5c-0.2,0.1 -0.4,0.1 -0.6,-0.1c-0.6,-0.6 -1.4,-1 -2.2,-1c-1.6,0 -2.9,1.2 -3,2.8c0,0.1 -0.1,0.3 -0.2,0.4c-0.1,0.1 -0.3,0.1 -0.4,0.1c-0.8,-0.2 -1.6,-0.1 -2.4,0.2c-1.7,0.6 -2.8,2.2 -2.9,3.9c0,1.2 0.4,2.4 1.2,3.2c0.8,0.9 2,1.3 3.2,1.3h11.3c0.3,0 0.5,0.2 0.5,0.5c0,0.3 -0.2,0.5 -0.5,0.5h-11.2c-1.5,0 -2.9,-0.6 -3.9,-1.7c-1,-1.1 -1.6,-2.5 -1.5,-4c0.1,-2.1 1.5,-4.1 3.5,-4.8c0.8,-0.3 1.6,-0.4 2.5,-0.3c0.4,-1.8 2,-3.2 3.9,-3.2c0.7,0 1.4,0.2 1.9,0.5c0,-0.4 0,-0.8 0.1,-1.2c0.5,-2.6 2.6,-4.6 5.2,-4.9c1.7,-0.2 3.3,0.3 4.6,1.3c1,0.8 1.7,2 2,3.2c1,-0.9 2.3,-1.4 3.7,-1.4c3.1,0 5.6,2.5 5.6,5.6c0,0.1 0,0.2 0,0.2c2.3,0.7 3.8,2.8 3.8,5.2c0.2,3.2 -2.2,5.6 -5.2,5.6z" fill="#472b29"></path><path d="M38.5,23.7c-1.8,-0.1 -3.4,1.1 -3.5,2.8c0,0.2 0,0.4 0,0.6c-0.3,-0.4 -0.9,-0.7 -1.5,-0.7c-1.1,-0.1 -2,0.6 -2.2,1.6c-0.2,-0.1 -0.4,-0.1 -0.6,-0.1c-1.6,-0.1 -2.9,1 -3,2.4" fill="#fdfcef"></path><path d="M27.8,30.6v0c-0.2,0 -0.3,-0.1 -0.3,-0.3c0.1,-1.6 1.6,-2.8 3.3,-2.7c0.1,0 0.3,0 0.4,0.1c0.3,-1 1.3,-1.6 2.4,-1.6c0.4,0 0.8,0.2 1.2,0.4c0,0 0,0 0,-0.1c0.1,-1.8 1.8,-3.2 3.7,-3c0.1,0 0.2,0.1 0.2,0.3c0,0.2 -0.1,0.3 -0.3,0.2c-1.7,-0.1 -3.1,1 -3.2,2.6c0,0.2 0,0.4 0,0.6c0,0.1 0,0.2 -0.1,0.3c-0.1,0.1 -0.2,0 -0.3,-0.1c-0.3,-0.4 -0.8,-0.6 -1.3,-0.6c-1,0 -1.8,0.6 -1.9,1.4c0,0.1 0,0.1 -0.1,0.2c-0.1,0 -0.1,0.1 -0.2,0c-0.2,-0.1 -0.4,-0.1 -0.6,-0.1c-1.3,-0.2 -2.6,0.8 -2.7,2.1c0,0.2 -0.1,0.3 -0.2,0.3z" fill="#472b29"></path><path d="M55.1,25.3c-1.7,-0.8 -3.7,-0.2 -4.4,1.3c-0.1,0.2 -0.2,0.4 -0.2,0.6" fill="#fdfcef"></path><path d="M50.5,27.4v0c-0.2,0 -0.3,-0.2 -0.2,-0.3c0,-0.2 0.1,-0.4 0.2,-0.6c0.8,-1.6 2.9,-2.2 4.7,-1.4c0.1,0.1 0.2,0.2 0.1,0.3c-0.1,0.1 -0.2,0.2 -0.3,0.1c-1.6,-0.7 -3.4,-0.2 -4.1,1.1c-0.1,0.2 -0.1,0.3 -0.2,0.5c0,0.2 -0.1,0.3 -0.2,0.3z" fill="#472b29"></path><path d="M17.9,57h-10c-0.3,0 -0.5,-0.2 -0.5,-0.5c0,-0.3 0.2,-0.5 0.5,-0.5h10c0.3,0 0.5,0.2 0.5,0.5c0,0.3 -0.2,0.5 -0.5,0.5zM21.3,56.5c0,-0.3 -0.2,-0.5 -0.5,-0.5h-1.4c-0.3,0 -0.5,0.2 -0.5,0.5c0,0.3 0.2,0.5 0.5,0.5h1.4c0.3,0 0.5,-0.2 0.5,-0.5zM25.3,56.5c0,-0.3 -0.2,-0.5 -0.5,-0.5h-2.5c-0.3,0 -0.5,0.2 -0.5,0.5c0,0.3 0.2,0.5 0.5,0.5h2.5c0.3,0 0.5,-0.2 0.5,-0.5zM25.3,58.5c0,-0.3 -0.2,-0.5 -0.5,-0.5h-9.6c-0.3,0 -0.5,0.2 -0.5,0.5c0,0.3 0.2,0.5 0.5,0.5h9.6c0.3,0 0.5,-0.2 0.5,-0.5zM14,58.5c0,-0.3 -0.2,-0.5 -0.5,-0.5h-0.6c-0.3,0 -0.5,0.2 -0.5,0.5c0,0.3 0.2,0.5 0.5,0.5h0.6c0.3,0 0.5,-0.2 0.5,-0.5zM11.6,58.5c0,-0.3 -0.2,-0.5 -0.5,-0.5h-1.4c-0.3,0 -0.5,0.2 -0.5,0.5c0,0.3 0.2,0.5 0.5,0.5h1.5c0.2,0 0.4,-0.2 0.4,-0.5zM20.7,54.5c0,-0.3 -0.2,-0.5 -0.5,-0.5h-5c-0.3,0 -0.5,0.2 -0.5,0.5c0,0.3 0.2,0.5 0.5,0.5h5c0.3,0 0.5,-0.2 0.5,-0.5zM20.7,52.5c0,-0.3 -0.2,-0.5 -0.5,-0.5h-1.2c-0.3,0 -0.5,0.2 -0.5,0.5c0,0.3 0.2,0.5 0.5,0.5h1.3c0.2,0 0.4,-0.2 0.4,-0.5zM17.5,60.5c0,-0.3 -0.2,-0.5 -0.5,-0.5h-1.8c-0.3,0 -0.5,0.2 -0.5,0.5c0,0.3 0.2,0.5 0.5,0.5h1.8c0.3,0 0.5,-0.2 0.5,-0.5z" fill="#ffffff"></path><path d="M71.7,25h-10c-0.3,0 -0.5,-0.2 -0.5,-0.5c0,-0.3 0.2,-0.5 0.5,-0.5h10c0.3,0 0.5,0.2 0.5,0.5c0,0.3 -0.2,0.5 -0.5,0.5zM75.1,24.5c0,-0.3 -0.2,-0.5 -0.5,-0.5h-1.4c-0.3,0 -0.5,0.2 -0.5,0.5c0,0.3 0.2,0.5 0.5,0.5h1.4c0.3,0 0.5,-0.2 0.5,-0.5zM79.2,24.5c0,-0.3 -0.2,-0.5 -0.5,-0.5h-2.5c-0.3,0 -0.5,0.2 -0.5,0.5c0,0.3 0.2,0.5 0.5,0.5h2.5c0.3,0 0.5,-0.2 0.5,-0.5zM77.2,20.5c0,-0.3 -0.2,-0.5 -0.5,-0.5h-9.7c-0.3,0 -0.5,0.2 -0.5,0.5c0,0.3 0.3,0.5 0.5,0.5h9.6c0.3,0 0.6,-0.2 0.6,-0.5zM65.8,20.5c0,-0.3 -0.2,-0.5 -0.5,-0.5h-0.6c-0.3,0 -0.5,0.2 -0.5,0.5c0,0.3 0.2,0.5 0.5,0.5h0.6c0.3,0 0.5,-0.2 0.5,-0.5zM63.4,20.5c0,-0.3 -0.2,-0.5 -0.5,-0.5h-1.5c-0.3,0 -0.5,0.2 -0.5,0.5c0,0.3 0.2,0.5 0.5,0.5h1.5c0.3,0 0.5,-0.2 0.5,-0.5zM74.6,22.5c0,-0.3 -0.2,-0.5 -0.5,-0.5h-5c-0.3,0 -0.5,0.2 -0.5,0.5c0,0.3 0.2,0.5 0.5,0.5h5c0.3,0 0.5,-0.2 0.5,-0.5zM74.6,20.5c0,-0.3 -0.2,-0.5 -0.5,-0.5h-1.3c-0.3,0 -0.5,0.2 -0.5,0.5c0,0.3 0.2,0.5 0.5,0.5h1.3c0.3,0 0.5,-0.2 0.5,-0.5zM68.1,22.5c0,-0.3 -0.2,-0.5 -0.5,-0.5h-1.8c-0.3,0 -0.5,0.2 -0.5,0.5c0,0.3 0.2,0.5 0.5,0.5h1.8c0.3,0 0.5,-0.2 0.5,-0.5z" fill="#ffffff"></path><path d="M52,63.1c-14.8,0 -26,-5.2 -26,-12.1c0,-6.9 11.2,-12.1 26,-12.1c14.8,0 26,5.2 26,12.1c0,6.9 -11.2,12.1 -26,12.1zM52,42.5c-13.3,0 -22.5,4.5 -22.5,8.5c0,4 9.3,8.5 22.5,8.5c13.2,0 22.5,-4.5 22.5,-8.5c0,-4 -9.2,-8.5 -22.5,-8.5z" fill="#77cbd2"></path><path d="M52,63.8c-15.2,0 -26.7,-5.5 -26.7,-12.8c0,-7.3 11.5,-12.8 26.7,-12.8c15.2,0 26.7,5.5 26.7,12.8c0,7.3 -11.5,12.8 -26.7,12.8zM52,39.6c-14.2,0 -25.3,5 -25.3,11.4c0,6.4 11.1,11.4 25.3,11.4c14.2,0 25.3,-5 25.3,-11.4c0,-6.4 -11.1,-11.4 -25.3,-11.4zM52,60.2c-13.9,0 -23.2,-4.8 -23.2,-9.2c0,-4.4 9.3,-9.2 23.2,-9.2c13.9,0 23.2,4.8 23.2,9.2c0,4.4 -9.3,9.2 -23.2,9.2zM52,43.2c-13.5,0 -21.8,4.5 -21.8,7.8c0,3.3 8.3,7.8 21.8,7.8c13.5,0 21.8,-4.5 21.8,-7.8c0,-3.3 -8.3,-7.8 -21.8,-7.8z" fill="#472b29"></path><path d="M42.3,74.4c-1.2,0 -2.2,-0.3 -3.2,-0.8c-5.7,-3.4 -4.5,-15.6 2.9,-28.4c5.1,-9 12,-15.8 17.5,-17.2c2,-0.5 3.9,-0.4 5.4,0.5c5.7,3.3 4.5,15.5 -2.9,28.4c-5.1,9 -12,15.8 -17.5,17.2c-0.8,0.2 -1.5,0.3 -2.2,0.3zM61.7,31.1c-0.4,0 -0.9,0.1 -1.3,0.2c-4.6,1.2 -10.8,7.5 -15.4,15.6c-6.4,11.2 -7.5,21.8 -4.1,23.7c0.7,0.4 1.6,0.5 2.8,0.2c4.6,-1.2 10.8,-7.5 15.4,-15.6c6.4,-11.2 7.5,-21.8 4.1,-23.7c-0.4,-0.3 -0.9,-0.4 -1.5,-0.4z" fill="#77cbd2"></path><path d="M42.3,75.1c-1.3,0 -2.5,-0.3 -3.5,-0.9c-6,-3.5 -4.9,-16.2 2.6,-29.4c5.2,-9.2 12.3,-16.1 17.9,-17.6c2.2,-0.6 4.3,-0.4 5.9,0.6c6,3.5 4.9,16.2 -2.6,29.4c-5.2,9.2 -12.3,16.1 -17.9,17.6c-0.8,0.2 -1.6,0.3 -2.4,0.3zM61.7,28.3c-0.7,0 -1.3,0.1 -2.1,0.3c-5.3,1.4 -12,8.1 -17.1,16.9c-7,12.3 -8.4,24.4 -3.1,27.5c1.3,0.8 3,0.9 4.9,0.4c5.3,-1.4 12,-8.1 17.1,-16.9c7,-12.3 8.4,-24.4 3.1,-27.5c-0.8,-0.5 -1.7,-0.7 -2.8,-0.7zM42.3,71.6c-0.7,0 -1.3,-0.1 -1.8,-0.4c-4.1,-2.4 -2.3,-13.9 3.9,-24.7c4.7,-8.3 11.1,-14.7 15.8,-15.9c1.3,-0.4 2.4,-0.3 3.3,0.2c4.1,2.4 2.3,13.9 -3.9,24.7c-4.7,8.3 -11.1,14.7 -15.8,15.9c-0.5,0.2 -1.1,0.2 -1.5,0.2zM61.7,31.8c-0.3,0 -0.7,0.1 -1.2,0.2c-4.4,1.2 -10.4,7.3 -15,15.3c-6.6,11.6 -7,21.2 -4.4,22.8c0.5,0.3 1.3,0.3 2.2,0.1c4.4,-1.2 10.4,-7.3 15,-15.3c6.6,-11.6 7,-21.2 4.4,-22.8c-0.2,-0.2 -0.6,-0.3 -1,-0.3z" fill="#472b29"></path><path d="M61.7,74.4c-0.7,0 -1.5,-0.1 -2.2,-0.3c-5.5,-1.5 -12.4,-8.3 -17.5,-17.3c-7.3,-12.9 -8.6,-25.1 -2.9,-28.4c1.5,-0.9 3.4,-1.1 5.4,-0.5c5.5,1.5 12.4,8.3 17.5,17.3c7.3,12.9 8.6,25.1 2.9,28.4c-0.9,0.5 -2,0.8 -3.2,0.8zM42.3,31.1c-0.5,0 -1,0.1 -1.4,0.3c-3.3,1.9 -2.3,12.5 4.1,23.7c4.6,8.1 10.8,14.4 15.4,15.6c1.1,0.3 2.1,0.3 2.8,-0.2c3.3,-1.9 2.3,-12.5 -4.1,-23.7c-4.6,-8.1 -10.8,-14.4 -15.4,-15.6c-0.6,-0.1 -1,-0.1 -1.4,-0.1z" fill="#77cbd2"></path><path d="M61.7,75.1c-0.8,0 -1.6,-0.1 -2.4,-0.3c-5.7,-1.5 -12.7,-8.4 -17.9,-17.6c-7.7,-13.4 -8.8,-25.8 -2.6,-29.4c1.7,-1 3.7,-1.2 5.9,-0.6c5.7,1.5 12.7,8.4 17.9,17.6c7.5,13.2 8.7,25.8 2.6,29.4c-1,0.6 -2.2,0.9 -3.5,0.9zM42.3,28.3c-1,0 -2,0.2 -2.8,0.7c-5.3,3.1 -3.9,15.1 3.1,27.5c5,8.9 11.8,15.5 17.1,16.9c1.8,0.5 3.5,0.3 4.9,-0.4c5.3,-3.1 3.9,-15.1 -3.1,-27.5c-5,-8.9 -11.8,-15.5 -17.1,-16.9c-0.8,-0.2 -1.5,-0.3 -2.1,-0.3zM61.7,71.6c-0.5,0 -1,-0.1 -1.5,-0.2c-4.8,-1.3 -11.1,-7.7 -15.8,-15.9c-6.1,-10.8 -7.9,-22.3 -3.9,-24.7c0.9,-0.5 2,-0.6 3.3,-0.2c4.8,1.3 11.1,7.7 15.8,15.9c6.1,10.8 7.9,22.3 3.9,24.7c-0.5,0.3 -1.1,0.4 -1.8,0.4zM42.3,31.8c-0.4,0 -0.8,0.1 -1.1,0.3c-2.6,1.5 -2.2,11.2 4.4,22.8c4.5,8 10.6,14.1 15,15.3c1,0.3 1.7,0.2 2.2,-0.1c2.6,-1.5 2.2,-11.2 -4.4,-22.8c-4.5,-8 -10.6,-14.1 -15,-15.3c-0.4,-0.2 -0.8,-0.2 -1.1,-0.2z" fill="#472b29"></path><circle cx="52" cy="51" r="5.5" fill="#77cbd2"></circle><path d="M52,57c-3.3,0 -6,-2.7 -6,-6c0,-3.3 2.7,-6 6,-6c3.3,0 6,2.7 6,6c0,3.3 -2.7,6 -6,6zM52,46c-2.8,0 -5,2.2 -5,5c0,2.8 2.2,5 5,5c2.8,0 5,-2.2 5,-5c0,-2.8 -2.2,-5 -5,-5z" fill="#472b29"></path><path d="M52,54.5c-0.1,0 -0.3,-0.1 -0.3,-0.3c0,-0.2 0.2,-0.2 0.3,-0.2c0.3,0 0.7,-0.1 1,-0.2c0.4,-0.2 0.9,-0.4 1.2,-0.8c0.1,-0.1 0.3,-0.1 0.4,0c0.1,0.1 0.1,0.3 0,0.4c-0.4,0.4 -0.9,0.7 -1.4,0.9c-0.4,0.1 -0.8,0.2 -1.2,0.2z" fill="#472b29"></path><g fill="#472b29"><path d="M54.9,52.7h-0.1c-0.1,-0.1 -0.2,-0.2 -0.1,-0.3c0.2,-0.4 0.3,-0.9 0.3,-1.3c0,-1.2 -0.6,-2.2 -1.7,-2.7c-0.1,-0.1 -0.2,-0.2 -0.1,-0.3c0.1,-0.1 0.2,-0.2 0.3,-0.1c1.2,0.6 2,1.8 2,3.1c0,0.5 -0.1,1.1 -0.4,1.5c0,0 -0.1,0.1 -0.2,0.1z"></path></g><g fill="#472b29"><path d="M50.2,48.5c-0.1,0 -0.2,0 -0.2,-0.1c-0.1,-0.1 0,-0.3 0.1,-0.3c0.6,-0.4 1.2,-0.6 1.9,-0.6c0.1,0 0.3,0.1 0.3,0.3c0,0.2 -0.2,0.2 -0.3,0.2c-0.6,0 -1.1,0.2 -1.6,0.5c-0.1,0 -0.1,0 -0.2,0z"></path></g><g fill="#472b29"><path d="M55.3,38.7c-0.1,0 -0.1,0 -0.2,-0.1c-3.4,-4.2 -6.7,-7 -9.6,-8.3c-0.1,-0.1 -0.2,-0.2 -0.1,-0.3c0.1,-0.1 0.2,-0.2 0.3,-0.1c3,1.3 6.4,4.1 9.8,8.5c0.1,0.1 0.1,0.3 0,0.4c-0.1,-0.1 -0.2,-0.1 -0.2,-0.1z"></path></g><g fill="#472b29"><path d="M39.5,30.4c-0.1,0 -0.1,0 -0.2,-0.1c-0.1,-0.1 -0.1,-0.3 0,-0.4c0.3,-0.2 1.7,-1.2 4.4,-0.7c0.1,0 0.2,0.2 0.2,0.3c0,0.1 -0.2,0.2 -0.3,0.2c-2.5,-0.5 -3.9,0.4 -4,0.6z"></path></g><g fill="#472b29"><path d="M73.6,56.1c-0.1,0 -0.1,0 -0.2,-0.1c-0.1,-0.1 -0.1,-0.3 0,-0.4c2.2,-1.8 3,-3.8 2.5,-6.1c0,-0.1 0.1,-0.3 0.2,-0.3c0.1,0 0.3,0.1 0.3,0.2c0.5,2.4 -0.4,4.7 -2.7,6.6c0,0.1 0,0.1 -0.1,0.1z"></path></g><g fill="#472b29"><path d="M69.6,58.3c-0.1,0 -0.2,-0.1 -0.2,-0.2c0,-0.1 0,-0.3 0.2,-0.3c0,0 1.3,-0.4 2.7,-1.3c0.1,-0.1 0.3,0 0.3,0.1c0.1,0.1 0,0.3 -0.1,0.3c-1.5,1 -2.8,1.4 -2.9,1.4c0.1,0 0,0 0,0z"></path></g><g fill="#472b29"><path d="M41.9,73v0c-2.5,-0.1 -4.1,-1.9 -4.7,-5.3c0,-0.1 0.1,-0.3 0.2,-0.3c0.1,0 0.3,0.1 0.3,0.2c0.5,3.2 1.9,4.8 4.2,4.9c0.1,0 0.2,0.1 0.2,0.3c0,0 -0.1,0.2 -0.2,0.2z"></path></g><g fill="#472b29"><path d="M37.3,65.6c-0.1,0 -0.2,-0.1 -0.3,-0.2c-0.1,-2.1 0.2,-4 0.3,-4.2c0,-0.1 0.2,-0.2 0.3,-0.2c0.1,0 0.2,0.2 0.2,0.3c0,0.1 -0.3,1.9 -0.3,4.1c0,0.1 -0.1,0.2 -0.2,0.2z"></path></g><g><path d="M79.2,64.3c1.9,0 3.5,0 3.5,0c2.1,0 3.8,-1.7 3.8,-3.7c0,-1.8 -1.3,-3.3 -3,-3.7c0,-0.2 0,-0.3 0,-0.5c0,-2.1 -1.8,-3.9 -4,-3.9c-1.3,0 -2.4,0.6 -3.2,1.5c-0.2,-2.4 -2.4,-4.2 -4.9,-3.9c-1.9,0.2 -3.4,1.6 -3.7,3.4c-0.1,0.6 -0.1,1.1 0,1.7c-0.5,-0.5 -1.2,-0.9 -2,-0.9c-1.4,0 -2.6,1.1 -2.7,2.5c-0.7,-0.1 -1.4,-0.1 -2.1,0.1c-1.4,0.5 -2.5,1.9 -2.5,3.4c-0.1,2.1 1.7,3.9 3.8,3.9c0.2,0 0.7,0 0.9,0h7.9M72.7,64.3h0.4" fill="#fdfcef"></path><path d="M82.7,64.8h-3.5c-0.3,0 -0.5,-0.2 -0.5,-0.5c0,-0.3 0.2,-0.5 0.5,-0.5h3.5c1.8,0 3.3,-1.5 3.3,-3.2c0,-1.5 -1.1,-2.9 -2.6,-3.2c-0.3,-0.1 -0.4,-0.3 -0.4,-0.6c0,-0.1 0,-0.3 0,-0.4c0,-1.9 -1.6,-3.4 -3.5,-3.4c-1.1,0 -2.1,0.5 -2.8,1.3c-0.1,0.2 -0.3,0.2 -0.5,0.2c-0.2,-0.1 -0.3,-0.2 -0.4,-0.4c-0.1,-1 -0.6,-1.9 -1.4,-2.6c-0.8,-0.7 -1.9,-1 -3,-0.9c-1.6,0.2 -3,1.4 -3.3,3c-0.1,0.5 -0.1,1 0,1.5c0,0.2 -0.1,0.4 -0.3,0.5c-0.2,0.1 -0.4,0.1 -0.6,-0.1c-0.4,-0.5 -1,-0.7 -1.6,-0.7c-1.2,0 -2.1,0.9 -2.2,2c0,0.1 -0.1,0.3 -0.2,0.4c-0.1,0.1 -0.3,0.1 -0.4,0.1c-0.6,-0.1 -1.2,-0.1 -1.8,0.1c-1.3,0.5 -2.1,1.6 -2.2,2.9c0,0.9 0.3,1.7 0.9,2.3c0.6,0.7 1.5,1 2.4,1h8.8c0.3,0 0.5,0.2 0.5,0.5c0,0.3 -0.2,0.5 -0.5,0.5h-8.8c-1.2,0 -2.3,-0.5 -3.1,-1.3c-0.8,-0.8 -1.2,-1.9 -1.2,-3.1c0.1,-1.7 1.2,-3.2 2.8,-3.8c0.6,-0.2 1.2,-0.3 1.9,-0.2c0.3,-1.4 1.6,-2.4 3.1,-2.4c0.5,0 1,0.1 1.4,0.3c0,-0.2 0,-0.5 0.1,-0.7c0.4,-2 2.1,-3.6 4.2,-3.8c1.4,-0.2 2.7,0.2 3.7,1.1c0.7,0.6 1.3,1.4 1.5,2.3c0.8,-0.6 1.8,-1 2.8,-1c2.5,0 4.5,2 4.5,4.4v0.1c1.8,0.6 3,2.2 3,4c0.2,2.4 -1.7,4.3 -4.1,4.3zM73.1,64.8h-0.4c-0.3,0 -0.5,-0.2 -0.5,-0.5c0,-0.3 0.2,-0.5 0.5,-0.5h0.4c0.3,0 0.5,0.2 0.5,0.5c0,0.3 -0.3,0.5 -0.5,0.5z" fill="#472b29"></path><g fill="#472b29"><path d="M81,59v0c-0.2,0 -0.3,-0.2 -0.2,-0.3c0,-0.2 0.1,-0.3 0.2,-0.5c0.6,-1.2 2.3,-1.7 3.7,-1c0.1,0.1 0.2,0.2 0.1,0.3c-0.1,0.1 -0.2,0.2 -0.3,0.1c-1.2,-0.6 -2.6,-0.2 -3.1,0.8c-0.1,0.1 -0.1,0.2 -0.1,0.4c-0.1,0.1 -0.2,0.2 -0.3,0.2z"></path></g><g fill="#472b29"><path d="M75.9,64.8h-1.1c-0.3,0 -0.5,-0.2 -0.5,-0.5c0,-0.3 0.2,-0.5 0.5,-0.5h1.1c0.3,0 0.5,0.2 0.5,0.5c0,0.3 -0.3,0.5 -0.5,0.5z"></path></g></g></g></g></svg>